<svg xmlns="http://www.w3.org/2000/svg" viewBox="0 0 16 16">
        <g id="bold">
            <path d="M3.93,11.76V3.53H3.61a1.6,1.6,0,0,1-1.09-.29,1,1,0,0,1-.32-.76,1,1,0,0,1,.32-.77,1.65,1.65,0,0,1,1.09-.29H8.88a4.31,4.31,0,0,1,3,1.05A3.26,3.26,0,0,1,13.06,5a3.11,3.11,0,0,1-.27,1.29A3.26,3.26,0,0,1,12,7.38a4.31,4.31,0,0,1,1.5,1.39,3.33,3.33,0,0,1,.49,1.8,3.11,3.11,0,0,1-.36,1.48,2.29,2.29,0,0,1-.65.83,4.25,4.25,0,0,1-1.28.71,5.75,5.75,0,0,1-1.9.27H3.61a1.65,1.65,0,0,1-1.09-.29,1,1,0,0,1-.32-.77,1,1,0,0,1,.33-.75,1.59,1.59,0,0,1,1.08-.29ZM6,6.59h2.3A3.31,3.31,0,0,0,10.41,6a1.29,1.29,0,0,0,.55-1,1.24,1.24,0,0,0-.52-1,2.68,2.68,0,0,0-1.67-.42H6Zm0,5.17H9.67a3.21,3.21,0,0,0,1.8-.38,1,1,0,0,0,.4-.82,1.65,1.65,0,0,0-.79-1.25,3.62,3.62,0,0,0-2.26-.62H6Z"/>
        </g>
</svg>