<svg xmlns="http://www.w3.org/2000/svg" viewBox="0 0 20 20">
    <g id="all">
        <g id="plus">
            <path fill-rule="evenodd" clip-rule="evenodd"
                  d="M7 0c3.861 0 7 3.139 7 7s-3.139 7-7 7-7-3.139-7-7 3.139-7 7-7zM3.561 5.295a1.027 1.027 0 1 0 2.054 0 1.027 1.027 0 0 0-2.054 0zm5.557 1.027a1.027 1.027 0 1 1 0-2.054 1.027 1.027 0 0 1 0 2.054zm1.211 2.816a.77.77 0 0 0-.124-1.087.786.786 0 0 0-1.098.107c-.273.407-1.16.958-2.254.958-1.093 0-1.981-.55-2.244-.945a.788.788 0 0 0-1.107-.135.786.786 0 0 0-.126 1.101c.55.734 1.81 1.542 3.477 1.542 1.668 0 2.848-.755 3.476-1.541z"/>
        </g>
        <g id="cover">
            <path fill-rule="evenodd" clip-rule="evenodd"
                  d="M2 0a2 2 0 0 0-2 2v10a2 2 0 0 0 2 2h10a2 2 0 0 0 2-2V2a2 2 0 0 0-2-2H2zm0 12h10L8.5 5.5l-2 4-2-1.5L2 12z"/>
        </g>
        <g id="discussion">
            <path fill-rule="evenodd" clip-rule="evenodd"
                  d="M10.874 10.027c.384-.003.84-.095 1.197-.24.353-.15.74-.41 1.013-.68.269-.276.526-.663.676-1.018.143-.357.234-.814.237-1.2L14 3.138c0-.83-.328-1.628-.913-2.216A3.116 3.116 0 0 0 10.877 0H3.123C2.293 0 1.5.332.913.92A3.145 3.145 0 0 0 0 3.138V6.89c.004.385.094.842.237 1.199.15.354.408.742.676 1.018.586.589 1.38.92 2.21.92L5 10l2.71 3.062c.275.276.647.434 1.038.438h.003c.194-.005.479-.075.654-.16h.002l.001-.002c.204-.118.455-.372.57-.576a1.86 1.86 0 0 0 .143-.694h.002l-.002-2.04h.753zM3 3.5a.5.5 0 0 1 .5-.5h7a.5.5 0 0 1 0 1h-7a.5.5 0 0 1-.5-.5zM3.5 6a.5.5 0 0 0 0 1h4a.5.5 0 0 0 0-1h-4z"/>
        </g>

        <g id="drag">
            <path d="M3,2 C2.44771525,2 2,1.55228475 2,1 C2,0.44771525 2.44771525,0 3,0 C3.55228475,0 4,0.44771525 4,1 C4,1.55228475 3.55228475,2 3,2 Z M3,6 C2.44771525,6 2,5.55228475 2,5 C2,4.44771525 2.44771525,4 3,4 C3.55228475,4 4,4.44771525 4,5 C4,5.55228475 3.55228475,6 3,6 Z M3,10 C2.44771525,10 2,9.55228475 2,9 C2,8.44771525 2.44771525,8 3,8 C3.55228475,8 4,8.44771525 4,9 C4,9.55228475 3.55228475,10 3,10 Z M7,2 C6.44771525,2 6,1.55228475 6,1 C6,0.44771525 6.44771525,0 7,0 C7.55228475,0 8,0.44771525 8,1 C8,1.55228475 7.55228475,2 7,2 Z M7,6 C6.44771525,6 6,5.55228475 6,5 C6,4.44771525 6.44771525,4 7,4 C7.55228475,4 8,4.44771525 8,5 C8,5.55228475 7.55228475,6 7,6 Z M7,10 C6.44771525,10 6,9.55228475 6,9 C6,8.44771525 6.44771525,8 7,8 C7.55228475,8 8,8.44771525 8,9 C8,9.55228475 7.55228475,10 7,10 Z"/>
        </g>
        <g id="cross">
            <path d="M9.3,9.3v7h-2v-7h-7v-2h7c0,0,0,0,0-7h2v7h7v2H9.3z"/>
        </g>
        <g id="trash">
            <path d="M10.5,2.2C10.5,1,9.5,0,8.3,0H6.1C4.9,0,3.9,1,3.9,2.2H0v1.1h1.1v12.1h12.1V3.3h1.1V2.2H10.5z M6.1,1.1h2.2
		c0.6,0,1.1,0.5,1.1,1.1H5C5,1.6,5.5,1.1,6.1,1.1z M12.1,14.3H2.2v-11h9.9V14.3z M7.7,5.5H6.6v6.6h1.1V5.5z M9.9,5.5H8.8v6.6h1.1
		V5.5z M5.5,5.5H4.4v6.6h1.1V5.5z"/>
        </g>
    </g>
</svg>

