<svg xmlns="http://www.w3.org/2000/svg" viewBox="0 0 16 16">
        <g id="strike">
            <path d="M11.32,2.52V2.23a.66.66,0,0,1,.12-.44.42.42,0,0,1,.31-.13.44.44,0,0,1,.32.13.73.73,0,0,1,.11.44v2.2a.73.73,0,0,1-.11.44.45.45,0,0,1-.62,0,.59.59,0,0,1-.13-.4,2.18,2.18,0,0,0-.88-1.55,3.33,3.33,0,0,0-2.19-.68A3.33,3.33,0,0,0,6,3a2.22,2.22,0,0,0-.84,1.73A2,2,0,0,0,6,6.32a3.25,3.25,0,0,0,.88.42,10.36,10.36,0,0,0,1.54.33,11.45,11.45,0,0,1,2.42.59,3,3,0,0,1,1.35,1.11,3,3,0,0,1,.46,1.67A3.28,3.28,0,0,1,11.47,13a4.67,4.67,0,0,1-3.18,1A4.71,4.71,0,0,1,4.7,12.59v.49a.63.63,0,0,1-.12.44.4.4,0,0,1-.31.14A.41.41,0,0,1,4,13.52a.63.63,0,0,1-.12-.44V10.71A.69.69,0,0,1,4,10.25a.37.37,0,0,1,.31-.13.41.41,0,0,1,.3.12.63.63,0,0,1,.13.4,2.38,2.38,0,0,0,1,1.72,4,4,0,0,0,2.58.77,3.75,3.75,0,0,0,2.56-.81,2.44,2.44,0,0,0,.93-1.91,2.17,2.17,0,0,0-.35-1.21,2.4,2.4,0,0,0-1.07-.83,10.26,10.26,0,0,0-2-.49A6.94,6.94,0,0,1,5.22,6.79a2.51,2.51,0,0,1-.94-2.1A3,3,0,0,1,5.36,2.36a4.1,4.1,0,0,1,2.86-1A4.53,4.53,0,0,1,11.32,2.52Z"/>
            <rect x="2" y="7" width="12" height="1"/>
        </g>
</svg>