<svg xmlns="http://www.w3.org/2000/svg" viewBox="0 0 16 16">
    <g id="underline">
        <path d="M12.29,2.34v7.2a4.19,4.19,0,0,1-1.21,3,4,4,0,0,1-2.92,1.23,4.18,4.18,0,0,1-2-.5A4.23,4.23,0,0,1,4.6,11.79,4.2,4.2,0,0,1,4,9.54V2.34H3.24a.66.66,0,0,1-.44-.12.39.39,0,0,1-.13-.31.45.45,0,0,1,.14-.33.7.7,0,0,1,.43-.1H6.42a.71.71,0,0,1,.44.11A.42.42,0,0,1,7,1.91a.4.4,0,0,1-.14.31.64.64,0,0,1-.44.12H4.83v7.2a3.34,3.34,0,0,0,1,2.42,3.13,3.13,0,0,0,2.3,1,3.17,3.17,0,0,0,1.56-.39,3.51,3.51,0,0,0,1.23-1.2,3.29,3.29,0,0,0,.53-1.82V2.34H9.84a.63.63,0,0,1-.44-.12.4.4,0,0,1-.14-.31.42.42,0,0,1,.14-.32.69.69,0,0,1,.44-.11H13a.73.73,0,0,1,.44.11.44.44,0,0,1,.13.32.42.42,0,0,1-.13.31.66.66,0,0,1-.44.12Z"/>
        <rect x="3" y="14" width="10" height="1"/>
    </g>
</svg>